<svg xmlns="http://www.w3.org/2000/svg" viewBox="0 0 131 131.03"><defs><style>.cls-1{fill:#fff;}</style></defs><title>Asset 2</title><g id="Layer_2" data-name="Layer 2"><g id="Layer_1-2" data-name="Layer 1"><g id="m9cN1I.tif"><path class="cls-1" d="M0,131V0H131V131Zm108.39-29.16a27.84,27.84,0,0,0,4.13,2.33,16,16,0,0,0,3.82.51c.09,0,.22-.1.29-.18.54-.62,1.13-1.21,1.61-1.88,1.49-2.08,3-4.16,4.39-6.32A35.49,35.49,0,0,0,125.26,91a2,2,0,0,0-.13-2.06c-1.43-2-2.92-3.91-5.31-4.84-.79-.31-.77-.8-.55-1.53.58-1.9,1.13-3.82,1.57-5.76.2-.93.39-1.46,1.51-1.15.64.17,1.37,0,2,.06,1.89.31,3.38-.61,4.89-1.47a.77.77,0,0,0,.33-.46c.2-1.25.4-2.49.55-3.75.06-.54-.05-1.11,0-1.65.18-1.58.5-3.15.57-4.73a24.34,24.34,0,0,0-.25-4.75c-.2-1.31-.43-2.56-2.14-3.22A15.38,15.38,0,0,0,122,54.43a1.27,1.27,0,0,1-1-.75c-.64-2.14-1.16-4.31-1.76-6.46-.14-.54-.14-.83.46-1.12A13.88,13.88,0,0,0,123,44.21a19.81,19.81,0,0,0,2.46-3.11.44.44,0,0,0,0-.34c-.28-.82-.51-1.66-.86-2.44-1.09-2.38-2.16-4.77-3.36-7.1a25.27,25.27,0,0,0-2.52-3.88c-.56-.72-1.45-1.74-2.14-1.71a23.86,23.86,0,0,0-5.45,1.1c-.93.26-1.84,1.33-2.63,1.21s-1.44-1.26-2.12-2c-1.18-1.28-2.34-2.59-3.54-3.92a21,21,0,0,1,1.58-2.55c1.15-1.46,1.05-3.16,1.11-4.84a.76.76,0,0,0-.23-.55,18.82,18.82,0,0,0-1.86-1.61c-1.8-1.28-3.58-2.57-5.41-3.79a40,40,0,0,0-4.53-2.5c-1.64-.75-3-1.3-4.68.07a14.13,14.13,0,0,0-4,4.69c-.44.88-.83,1.23-3.93-1a3.92,3.92,0,0,0-3.82-.21c-.26.1-.71-.47-.71-.8a30.41,30.41,0,0,1,.1-3.82c.16-1.58-1.16-2.49-1.56-3.8,0-.1-.26-.16-.41-.19C73.36,1,72.16.75,71,.61c-.59-.07-1.19,0-1.78,0C67.64.4,66.11.08,64.57,0A29.38,29.38,0,0,0,59.7.25a3.52,3.52,0,0,0-3.29,2.41,14,14,0,0,0-1.1,5.92c0,.61-.05,1.05-.79,1.23-2.17.51-4.33,1.1-6.48,1.7-.57.16-.82.08-1.09-.49A15.58,15.58,0,0,0,45,7.6a17.81,17.81,0,0,0-3.06-2.34.43.43,0,0,0-.35,0c-.81.28-1.65.51-2.43.86-2.29,1-4.59,2.06-6.82,3.21A25.08,25.08,0,0,0,29.57,11c-1.89,1.28-3.45,2.19-3.05,4.7a13.47,13.47,0,0,0,2,5.57A1.28,1.28,0,0,1,28.31,23c-1,.86-1.93,1.8-2.86,2.73S23.92,27.29,23.21,28a27.34,27.34,0,0,0-4.07-2.31,8.09,8.09,0,0,0-3.92-.43c-.72.13-1.34,1.24-1.88,2-1.54,2.12-3.07,4.25-4.48,6.45A28.48,28.48,0,0,0,6.71,38a3.48,3.48,0,0,0,.49,4,15.13,15.13,0,0,0,4.51,3.82c.34.19.75.79.68,1.1-.52,2.29-1.14,4.56-1.79,6.82a1.08,1.08,0,0,1-.81.57,25.81,25.81,0,0,0-3.93,0,18.13,18.13,0,0,0-3.69,1.48c-.1,0-.15.27-.17.42-.19,1.2-.4,2.41-.54,3.62-.07.59,0,1.19,0,1.78-.17,1.57-.49,3.14-.55,4.72a27,27,0,0,0,.24,4.75,3.56,3.56,0,0,0,2.41,3.29,13.69,13.69,0,0,0,5.93,1.08c.8-.06,1.16.23,1.3,1.33A23.9,23.9,0,0,0,12.14,82c.44,1.14.41,1.52-.49,1.92a12.8,12.8,0,0,0-3.31,1.92,17.75,17.75,0,0,0-2.24,3,.53.53,0,0,0,0,.35c.28.81.52,1.65.87,2.43.78,1.76,1.55,3.53,2.39,5.26a47.34,47.34,0,0,0,3.18,5.3c1,1.4,2,2.39,4,2.06a13.62,13.62,0,0,0,5.65-2.07c.67-.46,1.08-.28,1.61.28,1.42,1.52,2.92,3,4.39,4.43.24.25.47.51.64.7a24.59,24.59,0,0,0-2.18,3.84,19.71,19.71,0,0,0-.65,4,.44.44,0,0,0,.15.3c.65.57,1.27,1.18,2,1.68,2,1.42,4,2.86,6,4.19a29.32,29.32,0,0,0,4.06,2.18c1.57.68,2.91,1.18,4.55-.18a13.65,13.65,0,0,0,3.87-4.6c.37-.77.8-.88,1.74-.54s1.86.69,2.82.94c3.38.87,4.11.39,4,1.79a14.16,14.16,0,0,0,0,4.06,15.35,15.35,0,0,0,1.48,3.33.46.46,0,0,0,.3.16c1.09.17,2.18.36,3.27.48.71.08,1.43,0,2.14.06,1.69.18,3.38.51,5.08.58a20,20,0,0,0,4.51-.26c1-.2,2.31-.14,2.9-1.52a13.92,13.92,0,0,0,1.5-6.94,1.35,1.35,0,0,1,.8-1c2.1-.63,4.24-1.15,6.35-1.73.58-.17.89-.16,1.19.5a13.79,13.79,0,0,0,2,3.42,17.42,17.42,0,0,0,3.07,2.32c.07,0,.24,0,.34,0,.78-.27,1.59-.48,2.33-.82,2.31-1,4.64-2.07,6.89-3.23a26.76,26.76,0,0,0,4.1-2.64c.74-.58,1.76-1.52,1.73-2.26-.1-1.94,0-4-1.25-5.76a8.6,8.6,0,0,1-.94-1.67,1.07,1.07,0,0,1,0-.93C104.74,105.47,106.59,103.66,108.39,101.87Z"/><path d="M108.39,101.87c-1.8,1.79-3.65,3.6-5.46,5.45a1.07,1.07,0,0,0,0,.93,8.6,8.6,0,0,0,.94,1.67c1.27,1.73,1.15,3.82,1.25,5.76,0,.74-1,1.68-1.73,2.26a26.76,26.76,0,0,1-4.1,2.64c-2.25,1.16-4.58,2.19-6.89,3.23-.74.34-1.55.55-2.33.82-.1,0-.27.07-.34,0a17.42,17.42,0,0,1-3.07-2.32,13.79,13.79,0,0,1-2-3.42c-.3-.66-.61-.67-1.19-.5-2.11.58-4.25,1.1-6.35,1.73a1.35,1.35,0,0,0-.8,1,13.92,13.92,0,0,1-1.5,6.94c-.59,1.38-1.86,1.32-2.9,1.52a20,20,0,0,1-4.51.26c-1.7-.07-3.39-.4-5.08-.58-.71-.07-1.43,0-2.14-.06-1.09-.12-2.18-.31-3.27-.48a.46.46,0,0,1-.3-.16,15.35,15.35,0,0,1-1.48-3.33,14.16,14.16,0,0,1,0-4.06c.15-1.4-.58-.92-4-1.79-1-.25-1.89-.6-2.82-.94s-1.37-.23-1.74.54a13.65,13.65,0,0,1-3.87,4.6c-1.64,1.36-3,.86-4.55.18a29.32,29.32,0,0,1-4.06-2.18c-2-1.33-4-2.77-6-4.19-.7-.5-1.32-1.11-2-1.68a.44.44,0,0,1-.15-.3,19.71,19.71,0,0,1,.65-4,24.59,24.59,0,0,1,2.18-3.84c-.17-.19-.4-.45-.64-.7-1.47-1.47-3-2.91-4.39-4.43-.53-.56-.94-.74-1.61-.28a13.62,13.62,0,0,1-5.65,2.07c-2.06.33-3.05-.66-4-2.06a47.34,47.34,0,0,1-3.18-5.3c-.84-1.73-1.61-3.5-2.39-5.26-.35-.78-.59-1.62-.87-2.43a.53.53,0,0,1,0-.35,17.75,17.75,0,0,1,2.24-3,12.8,12.8,0,0,1,3.31-1.92c.9-.4.93-.78.49-1.92a23.9,23.9,0,0,1-1.39-5.23c-.14-1.1-.5-1.39-1.3-1.33a13.69,13.69,0,0,1-5.93-1.08,3.56,3.56,0,0,1-2.41-3.29,27,27,0,0,1-.24-4.75c.06-1.58.38-3.15.55-4.72.06-.59,0-1.19,0-1.78.14-1.21.35-2.42.54-3.62,0-.15.07-.38.17-.42a18.13,18.13,0,0,1,3.69-1.48,25.81,25.81,0,0,1,3.93,0,1.08,1.08,0,0,0,.81-.57c.65-2.26,1.27-4.53,1.79-6.82.07-.31-.34-.91-.68-1.1A15.13,15.13,0,0,1,7.2,42a3.48,3.48,0,0,1-.49-4,28.48,28.48,0,0,1,2.15-4.23c1.41-2.2,2.94-4.33,4.48-6.45.54-.76,1.16-1.87,1.88-2a8.09,8.09,0,0,1,3.92.43A27.34,27.34,0,0,1,23.21,28c.71-.74,1.45-1.55,2.24-2.33s1.86-1.87,2.86-2.73a1.28,1.28,0,0,0,.22-1.69,13.47,13.47,0,0,1-2-5.57c-.4-2.51,1.16-3.42,3.05-4.7a25.08,25.08,0,0,1,2.76-1.68c2.23-1.15,4.53-2.17,6.82-3.21.78-.35,1.62-.58,2.43-.86a.43.43,0,0,1,.35,0A17.81,17.81,0,0,1,45,7.6,15.58,15.58,0,0,1,47,11c.27.57.52.65,1.09.49,2.15-.6,4.31-1.19,6.48-1.7.74-.18.83-.62.79-1.23a14,14,0,0,1,1.1-5.92A3.52,3.52,0,0,1,59.7.25,29.38,29.38,0,0,1,64.57,0c1.54.06,3.07.38,4.6.55.59.07,1.19,0,1.78,0,1.21.14,2.41.35,3.62.53.15,0,.39.09.41.19.4,1.31,1.72,2.22,1.56,3.8A30.41,30.41,0,0,0,76.44,9c0,.33.45.9.71.8A3.92,3.92,0,0,1,81,10c3.1,2.23,3.49,1.88,3.93,1a14.13,14.13,0,0,1,4-4.69c1.69-1.37,3-.82,4.68-.07a40,40,0,0,1,4.53,2.5c1.83,1.22,3.61,2.51,5.41,3.79a18.82,18.82,0,0,1,1.86,1.61.76.76,0,0,1,.23.55c-.06,1.68,0,3.38-1.11,4.84A21,21,0,0,0,102.88,22c1.2,1.33,2.36,2.64,3.54,3.92.68.72,1.33,1.85,2.12,2s1.7-1,2.63-1.21a23.86,23.86,0,0,1,5.45-1.1c.69,0,1.58,1,2.14,1.71a25.27,25.27,0,0,1,2.52,3.88c1.2,2.33,2.27,4.72,3.36,7.1.35.78.58,1.62.86,2.44a.44.44,0,0,1,0,.34A19.81,19.81,0,0,1,123,44.21a13.88,13.88,0,0,1-3.32,1.89c-.6.29-.6.58-.46,1.12.6,2.15,1.12,4.32,1.76,6.46a1.27,1.27,0,0,0,1,.75,15.38,15.38,0,0,1,6.39,1.23c1.71.66,1.94,1.91,2.14,3.22a24.34,24.34,0,0,1,.25,4.75c-.07,1.58-.39,3.15-.57,4.73-.06.54.05,1.11,0,1.65-.15,1.26-.35,2.5-.55,3.75a.77.77,0,0,1-.33.46c-1.51.86-3,1.78-4.89,1.47-.66-.11-1.39.11-2-.06-1.12-.31-1.31.22-1.51,1.15-.44,1.94-1,3.86-1.57,5.76-.22.73-.24,1.22.55,1.53,2.39.93,3.88,2.86,5.31,4.84a2,2,0,0,1,.13,2.06,35.49,35.49,0,0,1-2.63,5.36c-1.38,2.16-2.9,4.24-4.39,6.32-.48.67-1.07,1.26-1.61,1.88-.07.08-.2.19-.29.18a16,16,0,0,1-3.82-.51A27.84,27.84,0,0,1,108.39,101.87ZM33.68,82.62c1.64,0,2,.14,2.45.87a2.62,2.62,0,0,0,4.52.05A4.28,4.28,0,0,0,38,77.15a21.89,21.89,0,0,0-5.23-.44,6.35,6.35,0,0,0-5.18,2.37c-2.06,2.91-3.31,6.17-2.69,9.8a8.3,8.3,0,0,0,1.7,3.89,56.89,56.89,0,0,0,6,5.79,45.77,45.77,0,0,0,19.11,9.56,61.64,61.64,0,0,0,16,1.2q4-.3,8.07-.69a48.3,48.3,0,0,0,17.83-5.25c6.31-3.3,11.21-8,12.51-15.32a27.49,27.49,0,0,0-2.88-18c-1.9-3.61-4.52-6.38-8.68-7.33,0,0-.07-.12-.16-.28.6-.64,1.22-1.31,1.85-2,3.78-3.86,6.35-10.67,3.14-17.15a4,4,0,0,1-.29-2.18,6.09,6.09,0,0,0-2.28-5.85,21.13,21.13,0,0,0-6.39-3.71c-3.92-1.5-7.84-3.06-12.07-3.38-3.42-.27-6.86-.34-10.29-.46a26.19,26.19,0,0,0-4.43.07,109.58,109.58,0,0,0-14.1,2.5C45,31.61,40.36,32.91,36.4,35.86c-2.69,2-5.17,4.23-6.29,7.51a23.2,23.2,0,0,0-1,9.11,4.49,4.49,0,0,0,.74,2.37c2.34,3,4.53,6.22,7.88,8.29a39.59,39.59,0,0,0,11.18,4.49c2,.52,4.08,1,6.07,1.51V96.78a2.7,2.7,0,0,1-.66,0,21.73,21.73,0,0,1-8.12-2.67Q42.56,92,39.05,89.58a26.79,26.79,0,0,1-3.69-3A5.24,5.24,0,0,1,33.68,82.62Z"/><path class="cls-1" d="M33.68,82.62a5.24,5.24,0,0,0,1.68,3.93,26.79,26.79,0,0,0,3.69,3q3.51,2.4,7.17,4.58a21.73,21.73,0,0,0,8.12,2.67,2.7,2.7,0,0,0,.66,0V69.14c-2-.5-4-1-6.07-1.51a39.59,39.59,0,0,1-11.18-4.49c-3.35-2.07-5.54-5.26-7.88-8.29a4.49,4.49,0,0,1-.74-2.37,23.2,23.2,0,0,1,1-9.11c1.12-3.28,3.6-5.49,6.29-7.51,4-3,8.57-4.25,13.25-5.57a109.58,109.58,0,0,1,14.1-2.5,26.19,26.19,0,0,1,4.43-.07c3.43.12,6.87.19,10.29.46,4.23.32,8.15,1.88,12.07,3.38a21.13,21.13,0,0,1,6.39,3.71,6.09,6.09,0,0,1,2.28,5.85,4,4,0,0,0,.29,2.18c3.21,6.48.64,13.29-3.14,17.15-.63.66-1.25,1.33-1.85,2,.09.16.11.27.16.28,4.16.95,6.78,3.72,8.68,7.33a27.49,27.49,0,0,1,2.88,18c-1.3,7.33-6.2,12-12.51,15.32a48.3,48.3,0,0,1-17.83,5.25q-4,.39-8.07.69a61.64,61.64,0,0,1-16-1.2,45.77,45.77,0,0,1-19.11-9.56,56.89,56.89,0,0,1-6-5.79,8.3,8.3,0,0,1-1.7-3.89c-.62-3.63.63-6.89,2.69-9.8a6.35,6.35,0,0,1,5.18-2.37,21.89,21.89,0,0,1,5.23.44,4.28,4.28,0,0,1,2.61,6.39,2.62,2.62,0,0,1-4.52-.05C35.72,82.76,35.32,82.61,33.68,82.62Zm55.86-18.7c.48-.37.84-.61,1.16-.9a39.61,39.61,0,0,0,4.43-4.35c3.15-4.12,3.54-8.88,2.65-13.82a11.43,11.43,0,0,0-4.62-7.68A23.69,23.69,0,0,0,86.38,34c-5.76-1.88-11.55-3.72-17.82-3.05a12.54,12.54,0,0,1-4-.15,4.58,4.58,0,0,0-4.11.86,2,2,0,0,0-.67,1.67,2,2,0,0,0,1.55.92c1.06,0,2.14-.29,3.21-.3,3.58,0,7.26-.48,10.73.15A91.34,91.34,0,0,1,88.8,38,8.23,8.23,0,0,1,94,42.39c4.1,9.89-1.24,18.6-11.07,21.09-2.93.74-6.18.24-9.29.29-.94,0-1.72.24-1.79,1.32s.61,1.41,1.5,1.52A30.69,30.69,0,0,0,84,66.26a6.25,6.25,0,0,1,3.46.09c7,2.21,11.26,6.75,12.1,14.2.34,3.07.39,6.19-1.44,8.81-2.39,3.4-5.09,6.66-8.68,8.83a40.12,40.12,0,0,1-8.57,4c-6,1.9-12.2,1.85-18.41,1.15a3,3,0,0,0-1.41,0c-.48.21-1.09.69-1.15,1.13s.41,1,.79,1.43a2.06,2.06,0,0,0,1.13.32c9.16,1,18,.5,26.49-3.89,5.2-2.7,8.86-6.87,12.27-11.36a8.83,8.83,0,0,0,1.57-4,27.14,27.14,0,0,0,.24-6.55C101.73,73.32,98.35,68,91.8,65ZM71.31,85h0v11c0,1.69,0,1.79,1.71,1.65a37.33,37.33,0,0,0,4.69-.79c3.49-.74,6.17-2.92,8.9-5a13.33,13.33,0,0,0,5.08-8.17c.51-3,0-5.51-2.45-7.13a25.31,25.31,0,0,0-5.64-3.06c-3.41-1.18-7-2-10.47-2.88-1.55-.38-2.23.48-1.93,2.07a8.2,8.2,0,0,1,.14,1.64C71.31,77.92,71.31,81.47,71.31,85Zm17.9-43.34a6.67,6.67,0,0,0-1.09-.76c-1.42-.59-2.84-1.14-4.28-1.67a23.26,23.26,0,0,0-6.91-1.38c-4.64-.24-5.63-.74-5.63.73q0,9.47,0,18.94c0,.77.29,1,1,1.08,3.13.3,6.25.7,9.38,1a16.46,16.46,0,0,0,4.38,0c4.86-.93,8.15-5.3,7.08-10.92a16,16,0,0,1-8.41,1.63c-1.42-.12-2.48-.61-2.87-2a3,3,0,0,1,1.9-3.7C85.62,43.85,87.56,43.29,89.21,41.69ZM66,36.17H62.67c-1.59,0-1.59,0-1.59,1.55V99.63c0,.47.05.93.07,1.4H66ZM55,40.85a18.4,18.4,0,0,0-9.76,6.82,3.38,3.38,0,0,0-.13,4.12,10.18,10.18,0,0,0,2.3,2.38,22.57,22.57,0,0,0,3.28,2.19c1.33.74,2.75,1.31,4.31,2Z"/><path d="M89.54,63.92,91.8,65c6.55,3,9.93,8.34,10.62,15.38a27.14,27.14,0,0,1-.24,6.55,8.83,8.83,0,0,1-1.57,4c-3.41,4.49-7.07,8.66-12.27,11.36-8.45,4.39-17.33,4.91-26.49,3.89a2.06,2.06,0,0,1-1.13-.32c-.38-.39-.85-1-.79-1.43s.67-.92,1.15-1.13a3,3,0,0,1,1.41,0c6.21.7,12.42.75,18.41-1.15a40.12,40.12,0,0,0,8.57-4c3.59-2.17,6.29-5.43,8.68-8.83,1.83-2.62,1.78-5.74,1.44-8.81-.84-7.45-5.09-12-12.1-14.2A6.25,6.25,0,0,0,84,66.26a30.69,30.69,0,0,1-10.73.35c-.89-.11-1.57-.52-1.5-1.52s.85-1.31,1.79-1.32c3.11-.05,6.36.45,9.29-.29C92.71,61,98.05,52.28,94,42.39A8.23,8.23,0,0,0,88.8,38a91.34,91.34,0,0,0-13.54-3.93c-3.47-.63-7.15-.18-10.73-.15-1.07,0-2.15.35-3.21.3a2,2,0,0,1-1.55-.92,2,2,0,0,1,.67-1.67,4.58,4.58,0,0,1,4.11-.86,12.54,12.54,0,0,0,4,.15c6.27-.67,12.06,1.17,17.82,3.05a23.69,23.69,0,0,1,6.78,3.22,11.43,11.43,0,0,1,4.62,7.68c.89,4.94.5,9.7-2.65,13.82A39.61,39.61,0,0,1,90.7,63C90.38,63.31,90,63.55,89.54,63.92Z"/><path d="M71.31,85c0-3.56,0-7.11,0-10.67a8.2,8.2,0,0,0-.14-1.64c-.3-1.59.38-2.45,1.93-2.07,3.52.86,7.06,1.7,10.47,2.88a25.31,25.31,0,0,1,5.64,3.06c2.44,1.62,3,4.17,2.45,7.13a13.33,13.33,0,0,1-5.08,8.17c-2.73,2.1-5.41,4.28-8.9,5A37.33,37.33,0,0,1,73,97.7c-1.71.14-1.72,0-1.71-1.65V85Z"/><path d="M89.21,41.69c-1.65,1.6-3.59,2.16-5.42,2.89a3,3,0,0,0-1.9,3.7c.39,1.38,1.45,1.87,2.87,2a16,16,0,0,0,8.41-1.63c1.07,5.62-2.22,10-7.08,10.92a16.46,16.46,0,0,1-4.38,0c-3.13-.26-6.25-.66-9.38-1-.74-.07-1-.31-1-1.08q0-9.48,0-18.94c0-1.47,1-1,5.63-.73a23.26,23.26,0,0,1,6.91,1.38c1.44.53,2.86,1.08,4.28,1.67A6.67,6.67,0,0,1,89.21,41.69Z"/><path d="M66,36.17V101H61.15c0-.47-.07-.93-.07-1.4V37.72c0-1.54,0-1.54,1.59-1.55Z"/><path d="M55,40.85V58.4c-1.56-.73-3-1.3-4.31-2a22.57,22.57,0,0,1-3.28-2.19,10.18,10.18,0,0,1-2.3-2.38,3.38,3.38,0,0,1,.13-4.12A18.4,18.4,0,0,1,55,40.85Z"/></g></g></g></svg>